<svg xmlns="http://www.w3.org/2000/svg" viewBox="0 0 1144.09 220.14"><defs><style>.cls-1{fill:#fff;}.cls-2{fill:#a8ff2c;}</style></defs><g id="Layer_2" data-name="Layer 2"><g id="Layer_1-2" data-name="Layer 1"><path class="cls-1" d="M56.5,195.62l58.67-58.31a14.3,14.3,0,0,1,10.09-4.17h0a14.34,14.34,0,0,1,14.36,14.32l.08,58.24a14.34,14.34,0,0,1-14.32,14.36l-58.75.08A14.34,14.34,0,0,1,56.5,195.62Z"/><path class="cls-2" d="M228.88,157.65,170.2,216a14.39,14.39,0,0,1-10.09,4.17h0a14.35,14.35,0,0,1-14.36-14.33l-.08-58.23A14.34,14.34,0,0,1,160,133.22l58.76-.08A14.34,14.34,0,0,1,228.88,157.65Z"/><path class="cls-2" d="M29.76,190,5,165.23A17.11,17.11,0,0,1,5.08,141L141,5.11c10.86-10.86,29.29-3.27,29.15,12l-.44,50.07a17.28,17.28,0,0,1-5.07,12.06L54,189.92A17.12,17.12,0,0,1,29.76,190Z"/><path class="cls-2" d="M362.88,84.08c-8.63,18.21-21.68,45.87-28.69,60.58a3,3,0,0,0,2.68,4.24h29.85a6.93,6.93,0,0,0,6.28-4l18.48-39.19a20.24,20.24,0,0,1,18.31-11.6H429.2a4.81,4.81,0,0,1,4.36,6.86c-6.82,14.4-21.2,44.84-29.55,62.51a22,22,0,0,1-19.85,12.57H316.57c-20.48,0-30.5-14-22.26-31.62,6.68-14,26.05-54.78,32.51-68.8C335.05,58.28,358.66,44,379.14,44H453a4.83,4.83,0,0,1,4.38,6.89L449.32,68A5.9,5.9,0,0,1,444,71.42H382.9A22.15,22.15,0,0,0,362.88,84.08Z"/><path class="cls-2" d="M620.85,44.06H529.08a5.58,5.58,0,0,0-5,3.18l-7.77,16.41L504,89.67l-37.14,78.48a5.56,5.56,0,0,0,5,7.94h27.77a5.55,5.55,0,0,0,5-3.18l22.83-48.19c.11-.21.22-.43.35-.63l0-.06,15.55-32.88a2.7,2.7,0,0,1,.22-.7L551.38,74a3.81,3.81,0,0,1,.57-.9,4.4,4.4,0,0,1,3.44-1.66h57.79a5.54,5.54,0,0,0,5-3.19L625.87,52A5.56,5.56,0,0,0,620.85,44.06Z"/><path class="cls-2" d="M732,44.06H679.48c-20.48,0-43.86,14.24-52.32,31.61l-32.51,68.8c-4,8.48-3.79,16.48.45,22.49,4,5.8,12,9.13,21.81,9.13h52.55c20.71,0,44.09-14,52.55-31.62L754.52,75.9C762.76,58.3,752.74,44.06,732,44.06ZM710.65,83.69l-24.94,53c-3.33,6.69-12.24,12.25-20.25,12.25H647c-8,0-11.79-5.56-8.68-12.25l25.16-53c3.34-6.9,12.25-12.24,20.27-12.24h18.47C710.21,71.45,714,76.79,710.65,83.69Z"/><path class="cls-2" d="M868.07,44.06H789a3.81,3.81,0,0,0-3.44,2.18L776.23,66a3.81,3.81,0,0,0,3.45,5.43h63.45c6,0,8.91,4,6.47,9.12l-2,4.46c-2.45,5.11-9.13,9.13-15.14,9.13H768.87a9.42,9.42,0,0,0-8.5,5.34c-.6,1.26-1.29,2.68-2.07,4.22-8.43,17.8-25.06,52.95-31.71,67a3.78,3.78,0,0,0,3.43,5.41H757.5a10.4,10.4,0,0,0,9.41-6l15.92-33.7a3.81,3.81,0,0,1,7.08.51l10.19,33.13a8.52,8.52,0,0,0,8.15,6h29.32a3.8,3.8,0,0,0,3.64-4.9L827.7,126.45a3.81,3.81,0,0,1,3.64-4.91h0c20.49,0,44.08-14.25,52.32-31.62l6.69-14.25C898.59,58.3,888.56,44.06,868.07,44.06Z"/><path class="cls-2" d="M1012.18,67.17l7-14.62a5.93,5.93,0,0,0-5.35-8.49H938.72a27.2,27.2,0,0,0-24.58,15.55l-40.27,84.86c-8.24,17.6,1.77,31.62,22.47,31.62h59a8.41,8.41,0,0,0,7.6-4.8l6.61-13.89a5.93,5.93,0,0,0-5.36-8.47h-47.5a3.05,3.05,0,0,1-2.76-4.35l31.6-67.05a10.61,10.61,0,0,1,9.6-6.08h50.21A7.53,7.53,0,0,0,1012.18,67.17Z"/><path class="cls-2" d="M483.35,104.51l-7.59,16a5.65,5.65,0,0,1-5.1,3.22H443.91a5.64,5.64,0,0,1-5.1-8l7.5-16a5.64,5.64,0,0,1,5.11-3.24h26.83A5.64,5.64,0,0,1,483.35,104.51Z"/><path class="cls-1" d="M549,94.16h0a3.63,3.63,0,0,0-3.27,2.06l-9.64,20.21a3.63,3.63,0,0,0,3.27,5.18h29.54a3.62,3.62,0,0,0,2.58-6.16l-19.9-20.21A3.62,3.62,0,0,0,549,94.16Z"/><path class="cls-2" d="M1052.17,94.16h62.23a5.85,5.85,0,0,1,5.3,8.35l-7.39,15.67a5.83,5.83,0,0,1-5.29,3.36h-50.84c-8,0-16.92,5.57-20.26,12.25l-7.12,15.14h59.74a5.86,5.86,0,0,1,5.3,8.37l-7.35,15.45a5.86,5.86,0,0,1-5.29,3.34H985.3a5.86,5.86,0,0,1-5.29-8.37L999.85,126C1008.09,108.41,1031.47,94.16,1052.17,94.16Zm91.36-41.74-7.39,15.67a5.86,5.86,0,0,1-5.3,3.36h-95.92a5.86,5.86,0,0,1-5.3-8.36L1037,47.42a5.85,5.85,0,0,1,5.3-3.36h95.92A5.86,5.86,0,0,1,1143.53,52.42Z"/></g></g></svg>